<?xml version="1.0" standalone="no"?>
<!DOCTYPE svg PUBLIC "-//W3C//DTD SVG 20010904//EN"
 "http://www.w3.org/TR/2001/REC-SVG-20010904/DTD/svg10.dtd">
<svg version="1.0" xmlns="http://www.w3.org/2000/svg"
 width="800.000000pt" height="800.000000pt" viewBox="0 0 800.000000 800.000000"
 preserveAspectRatio="xMidYMid meet">

<g transform="translate(0.000000,800.000000) scale(0.100000,-0.100000)"
fill="#000000" stroke="none">
<path d="M1584 5149 c-52 -15 -146 -124 -183 -214 -63 -150 -75 -213 -75 -395
0 -185 13 -256 85 -468 92 -265 163 -357 349 -449 200 -98 437 -171 705 -218
265 -45 481 -54 635 -25 277 52 449 299 452 645 2 138 -13 236 -52 350 -91
268 -218 400 -471 485 -248 84 -943 242 -1247 284 -125 18 -153 18 -198 5z
m481 -114 c427 -86 960 -226 1042 -274 29 -17 9 -12 -60 14 -182 68 -874 236
-1219 295 -66 12 -87 20 -50 20 9 0 139 -25 287 -55z m1195 -390 c30 -30 52
-55 49 -55 -2 0 -29 25 -59 55 -30 30 -52 55 -49 55 2 0 29 -25 59 -55z
m-1414 -66 c62 -29 148 -118 169 -173 38 -99 -11 -127 -100 -56 -120 94 -162
107 -260 80 -63 -18 -95 -3 -95 43 0 18 7 43 16 55 45 65 186 92 270 51z
m1031 -224 c28 -8 85 -38 127 -65 63 -41 81 -59 97 -96 15 -33 18 -52 11 -72
-15 -46 -56 -41 -158 18 -49 28 -105 55 -124 60 -51 14 -119 12 -176 -5 -114
-34 -160 -5 -119 75 41 79 216 123 342 85z m-1234 -438 c14 -24 40 -57 58 -75
95 -93 423 -203 779 -262 105 -18 180 -23 335 -24 110 0 211 2 225 7 48 14
100 20 100 10 0 -14 -35 -30 -110 -50 -71 -19 -325 -25 -470 -11 -49 5 -69 4
-59 -2 27 -16 196 -40 324 -46 116 -6 144 -3 285 31 l25 6 -25 -15 c-160 -97
-764 -28 -1215 141 -174 64 -313 160 -356 244 -24 47 -24 49 1 49 11 0 20 5
20 10 0 6 7 10 16 10 8 0 12 5 9 10 -3 6 3 10 13 10 13 0 29 -16 45 -43z"/>
<path d="M2385 3530 c11 -5 29 -9 40 -9 l20 0 -20 9 c-11 5 -29 9 -40 9 l-20
0 20 -9z"/>
<path d="M2928 2843 c7 -3 16 -2 19 1 4 3 -2 6 -13 5 -11 0 -14 -3 -6 -6z"/>
<path d="M2988 2833 c7 -3 16 -2 19 1 4 3 -2 6 -13 5 -11 0 -14 -3 -6 -6z"/>
<path d="M3028 2823 c6 -2 18 -2 25 0 6 3 1 5 -13 5 -14 0 -19 -2 -12 -5z"/>
<path d="M3093 2813 c9 -2 25 -2 35 0 9 3 1 5 -18 5 -19 0 -27 -2 -17 -5z"/>
<path d="M3183 2803 c9 -2 25 -2 35 0 9 3 1 5 -18 5 -19 0 -27 -2 -17 -5z"/>
<path d="M3288 2793 c23 -2 59 -2 80 0 20 2 1 4 -43 4 -44 0 -61 -2 -37 -4z"/>
</g>
</svg>
